<?xml version="1.0" standalone="no"?><!DOCTYPE svg PUBLIC "-//W3C//DTD SVG 1.1//EN" "http://www.w3.org/Graphics/SVG/1.1/DTD/svg11.dtd"><svg t="1622534406367" class="icon" viewBox="0 0 1024 1024" version="1.1" xmlns="http://www.w3.org/2000/svg" p-id="4909" xmlns:xlink="http://www.w3.org/1999/xlink" width="48" height="48"><defs><style type="text/css"></style></defs><path d="M512 851.626667a46.08 46.08 0 0 1-10.88-1.28l-384-101.12A42.666667 42.666667 0 0 1 85.333333 707.84V213.333333a42.666667 42.666667 0 0 1 53.546667-41.173333L512 270.293333l373.333333-98.133333A42.666667 42.666667 0 0 1 938.666667 213.333333v494.506667a42.666667 42.666667 0 0 1-31.786667 41.173333l-384 101.12a38.186667 38.186667 0 0 1-10.88 1.493334zM170.666667 674.986667l341.333333 89.813333 341.333333-89.813333v-405.333334l-330.88 85.973334a42.666667 42.666667 0 0 1-21.333333 0L170.666667 268.586667v406.4z m725.333333 32.853333z" p-id="4910" fill="#ff0000"></path><path d="M469.333333 426.666667m42.666667 0l0 0q42.666667 0 42.666667 42.666666l0 170.666667q0 42.666667-42.666667 42.666667l0 0q-42.666667 0-42.666667-42.666667l0-170.666667q0-42.666667 42.666667-42.666666Z" p-id="4911" fill="#ff0000"></path></svg>